inDegrees=no
num_controls=7
num_derivatives=13
num_iterations=148
num_multipliers=7
num_parameters=0
num_slacks=7
num_states=26
objective=5.344844
objective_accelerations=0.454948
objective_balance=0.012368
objective_effort=0.388300
objective_height=4.373519
objective_ligament=0.115710
solver_duration=1287.615649
status=Solve_Succeeded
success=true
DataType=double
version=3
OpenSimVersion=4.4-2022-07-23-0e9fedc
endheader
time	/jointset/ground_pelvis/pelvis_tilt/value	/jointset/ground_pelvis/pelvis_tx/value	/jointset/ground_pelvis/pelvis_ty/value	/jointset/hip_r/hip_flexion_r/value	/jointset/hip_r/hip_adduction_r/value	/jointset/hip_r/hip_rotation_r/value	/jointset/back/lumbar_extension/value	/jointset/patellofemoral_r/patellar_flexion_r/value	/jointset/knee_r/knee_flexion_r/value	/jointset/knee_r/knee_adduction_r/value	/jointset/knee_r/knee_rotation_r/value	/jointset/ankle_r/ankle_angle_r/value	/jointset/subtalar_r/subtalar_angle_r/value	/jointset/ground_pelvis/pelvis_tilt/speed	/jointset/ground_pelvis/pelvis_tx/speed	/jointset/ground_pelvis/pelvis_ty/speed	/jointset/hip_r/hip_flexion_r/speed	/jointset/hip_r/hip_adduction_r/speed	/jointset/hip_r/hip_rotation_r/speed	/jointset/back/lumbar_extension/speed	/jointset/patellofemoral_r/patellar_flexion_r/speed	/jointset/knee_r/knee_flexion_r/speed	/jointset/knee_r/knee_adduction_r/speed	/jointset/knee_r/knee_rotation_r/speed	/jointset/ankle_r/ankle_angle_r/speed	/jointset/subtalar_r/subtalar_angle_r/speed	/forceset/tau_hip_flexion_r	/forceset/tau_hip_adduction_r	/forceset/tau_hip_rotation_r	/forceset/tau_knee_flexion_r	/forceset/tau_ankle_angle_r	/forceset/tau_subtalar_angle_r	/forceset/tau_lumbar_extension	lambda_cid13_p0	lambda_cid14_p0	lambda_cid14_p1	lambda_cid14_p2	lambda_cid14_p3	lambda_cid14_p4	lambda_cid14_p5	/jointset/ground_pelvis/pelvis_tilt/accel	/jointset/ground_pelvis/pelvis_tx/accel	/jointset/ground_pelvis/pelvis_ty/accel	/jointset/hip_r/hip_flexion_r/accel	/jointset/hip_r/hip_adduction_r/accel	/jointset/hip_r/hip_rotation_r/accel	/jointset/back/lumbar_extension/accel	/jointset/patellofemoral_r/patellar_flexion_r/accel	/jointset/knee_r/knee_flexion_r/accel	/jointset/knee_r/knee_adduction_r/accel	/jointset/knee_r/knee_rotation_r/accel	/jointset/ankle_r/ankle_angle_r/accel	/jointset/subtalar_r/subtalar_angle_r/accel	gamma_cid13_p0	gamma_cid14_p0	gamma_cid14_p1	gamma_cid14_p2	gamma_cid14_p3	gamma_cid14_p4	gamma_cid14_p5
0.5	-0.08985669278195653	0.04299251619913818	0.8324542188830204	0.7639290730979893	-0.2133681331718342	-0.1576391366607039	-0.6335214726203879	0.8683258780643959	0.8683258780643897	-0.06618596040446646	0.174529864490137	0.2888913810969528	0.1515633019818851	-0.2508224210720169	-0.1728695767137476	-0.3987891293506244	1.527492287169949	-0.02707213280955021	0.1399493671217344	-0.7422123150303118	1.705767851716978	1.705767851716976	-0.4148998872415502	-3.914219357834442e-05	0.5279757884890449	0.1760465673625072	-0.167175344430001	0.005456169191290245	0.0160673030522588	-0.2787849314346852	-0.009503401653605336	0.002202759077368963	0.2209934037470165	-13.22014826765133	-45.67897707771709	-5.209191826692315	-0.8404008911720788	-1.302725598752121	-644.7820331254708	65.68580177802133	0.1899920256095892	0.4496308697316709	-0.3342055537035197	-1.059942226340411	-0.1919957507944465	-0.558628751222808	1.566419829647979	-1.184745426385995	-1.184745426386017	0.3647544767284099	-0.00885316267465262	-0.4478881088223254	-0.2955790293228443	-5.696675073065485e-08	-4.701079004464518e-09	6.583536261915036e-07	-2.918986033040246e-07	-7.093917638744405e-08	-8.164151697656876e-08	5.030412549889045e-07
0.51	-0.09235506235304118	0.04128650932068166	0.8284504905898976	0.7791488403819529	-0.2136486912141845	-0.1562680352216665	-0.6408643666326349	0.885321835439062	0.8853218354390399	-0.07031606533234949	0.1745299125396467	0.294147880309124	0.1533081629873186	-0.2488138420472512	-0.1683115063178607	-0.4018676756673948	1.516248512322524	-0.02903618821897794	0.1343081944249566	-0.7262772037737653	1.693191464248711	1.693191464248708	-0.4110524096000245	3.65990758602238e-05	0.5232517755018128	0.1728870397320782	-0.1723735916762433	0.006028854067469764	0.01647715305048589	-0.2832837789193615	-0.01036459327297587	0.002802280419630363	0.2260728950941052	-12.34627262375585	-46.17899239044488	-5.180722337704029	-0.6800535716225672	-1.361239860562438	-648.6918710713564	66.19819037961994	0.2119407006131794	0.4619179834590041	-0.28136281346426	-1.188490953796863	-0.1980701279289861	-0.5613394098812428	1.620449320642428	-1.328898239561143	-1.32889823956135	0.4051607116205715	0.01397947464755002	-0.4955263480704785	-0.3318021730711843	-5.472580752539414e-08	2.587528627430806e-08	8.545039644335012e-07	-2.352058914550652e-08	-1.084004201943733e-07	-5.550605241199164e-08	5.844558854707872e-07
0.52	-0.09483221616194441	0.03962668771797207	0.8244186401050473	0.7942497907494718	-0.2139487817490175	-0.154952241085777	-0.6480452310229194	0.9021850663725213	0.9021850663725205	-0.07440561222307282	0.1745303563423922	0.2993549657005419	0.1550202962078142	-0.2465792686343438	-0.16363252156436	-0.4044135676961415	1.503728903880966	-0.03097863130490542	0.1288879064891428	-0.7098063906378264	1.679222563479879	1.679222563479874	-0.4067882798082652	4.000846106907043e-05	0.5180930243387062	0.1695010103749221	-0.1775718389224429	0.00660153894370786	0.01688700304883004	-0.2877826264040241	-0.0112257848923336	0.003401801761985378	0.2311523864412252	-11.47419453478914	-46.68140311560595	-5.148478158004239	-0.5250979971327057	-1.435295531703262	-652.6475834504383	66.73985648558184	0.2351909032380477	0.473813741254291	-0.2276746960988005	-1.315108945167186	-0.1876732860942973	-0.5144517990298139	1.67356020552648	-1.463248086499211	-1.46324808649921	0.4480849067750717	-0.02331953952086029	-0.5348357439973456	-0.3408793746681632	-5.404789784817676e-08	3.173126832884378e-08	8.861422722663266e-07	1.169840694391669e-08	-1.148698723948664e-07	-4.962108389839991e-08	6.079527772930262e-07
0.53	-0.0972858526431455	0.03801414796911068	0.82036401805032	0.8092192923797004	-0.2142681286711952	-0.1536898243905497	-0.6550588233654208	0.9189017376137056	0.9189017376136981	-0.07845074899661879	0.1745306806695023	0.3045082740915461	0.1566974970161956	-0.2441066757966665	-0.1588661561284311	-0.4064196421926255	1.489970109213681	-0.0328813236658913	0.1236196528594522	-0.6928328065705068	1.663888140804689	1.663888140804688	-0.4021888139118767	2.182324684671655e-05	0.5124936240086113	0.1659068771363118	-0.1829654695734036	0.007484342217217385	0.01719455127884206	-0.2917188740604096	-0.01297643756225356	0.003940080916732292	0.236306373195359	-10.6061249481677	-47.48274873393211	-5.184457610430513	-0.3715057546159224	-1.18827404441473	-656.623061524829	67.09044850650747	0.2594998721357309	0.4794151027900349	-0.1734029739257379	-1.43645710052366	-0.1900941247029824	-0.5294447192413398	1.721148201302231	-1.602060212551546	-1.602060212550966	0.4735378462624303	0.008509003192577492	-0.5837748150716269	-0.3733764854670221	-5.253335561253098e-08	4.129308865794113e-08	9.435357945350811e-07	7.532687870311983e-08	-1.253595329380628e-07	-4.561336438444293e-08	6.512146981022848e-07
